<svg width="30" height="31" viewBox="0 0 30 31" fill="none" xmlns="http://www.w3.org/2000/svg">
<path d="M15 16.646C17.0711 16.646 18.75 14.9671 18.75 12.896C18.75 10.8249 17.0711 9.146 15 9.146C12.9289 9.146 11.25 10.8249 11.25 12.896C11.25 14.9671 12.9289 16.646 15 16.646Z" stroke="black" stroke-width="2" stroke-linecap="round" stroke-linejoin="round"/>
<path d="M15 2.896C12.3478 2.896 9.8043 3.94956 7.92893 5.82493C6.05357 7.70029 5 10.2438 5 12.896C5 15.261 5.5025 16.8085 6.875 18.521L15 27.896L23.125 18.521C24.4975 16.8085 25 15.261 25 12.896C25 10.2438 23.9464 7.70029 22.0711 5.82493C20.1957 3.94956 17.6522 2.896 15 2.896Z" stroke="black" stroke-width="2" stroke-linecap="round" stroke-linejoin="round"/>
</svg>
