<svg width="31" height="33" viewBox="0 0 31 33" fill="none" xmlns="http://www.w3.org/2000/svg">
<path d="M11.8902 4.125C14.0478 4.125 16.1171 5.06663 17.6428 6.74273C19.1685 8.41884 20.0256 10.6921 20.0256 13.0625C20.0256 15.2762 19.2872 17.3112 18.0731 18.8787L18.411 19.25H19.3998L25.6578 26.125L23.7804 28.1875L17.5224 21.3125V20.2262L17.1845 19.855C15.7083 21.2393 13.831 21.9999 11.8902 22C9.73253 22 7.66326 21.0584 6.13757 19.3823C4.61188 17.7062 3.75476 15.4329 3.75476 13.0625C3.75476 10.6921 4.61188 8.41884 6.13757 6.74273C7.66326 5.06663 9.73253 4.125 11.8902 4.125ZM11.8902 6.875C8.76117 6.875 6.25797 9.625 6.25797 13.0625C6.25797 16.5 8.76117 19.25 11.8902 19.25C15.0192 19.25 17.5224 16.5 17.5224 13.0625C17.5224 9.625 15.0192 6.875 11.8902 6.875Z" fill="#193F6C"/>
</svg>
