<svg width="40" height="40" viewBox="0 0 40 40" fill="none" xmlns="http://www.w3.org/2000/svg">
<path d="M15.8333 5C18.7065 5 21.462 6.14137 23.4937 8.17301C25.5253 10.2047 26.6667 12.9602 26.6667 15.8333C26.6667 18.5167 25.6833 20.9833 24.0667 22.8833L24.5167 23.3333H25.8333L34.1667 31.6667L31.6667 34.1667L23.3333 25.8333V24.5167L22.8833 24.0667C20.9176 25.7446 18.4178 26.6665 15.8333 26.6667C12.9602 26.6667 10.2047 25.5253 8.17301 23.4937C6.14137 21.462 5 18.7065 5 15.8333C5 12.9602 6.14137 10.2047 8.17301 8.17301C10.2047 6.14137 12.9602 5 15.8333 5ZM15.8333 8.33333C11.6667 8.33333 8.33333 11.6667 8.33333 15.8333C8.33333 20 11.6667 23.3333 15.8333 23.3333C20 23.3333 23.3333 20 23.3333 15.8333C23.3333 11.6667 20 8.33333 15.8333 8.33333Z" fill="white"/>
</svg>
